# xmcd
#
# Track frame offsets:
#	182
#	14052
#	24835
#	42832
#	57122
#	73450
#	93697
#	108162
#	121165
#	137620
#	151070
#	165350
#	177592
#	189562
#	203135
#	216302
#
# Disc length: 3148 seconds
#
# Revision: 2
# Processed by: cddbd v1.5.2PL0 Copyright (c) Steve Scherf et al.
# Submitted via: audiograbber 1.83.01
#
DISCID=dd0c4a10
DTITLE=Tom Astor - Meine Antwort ist die große Autobahn
DYEAR=1900
DGENRE=Country
TTITLE0=Die Frau mit dem Gurt
TTITLE1=Louise aus Louisiana
TTITLE2=Lucille
TTITLE3=Ein Mann ist schnell verloren
TTITLE4=Ich möcht' so gern Dave Dudley hör'n
TTITLE5=Der Feigling des Jahrhunderts
TTITLE6=Ich hab Hunger auf ein Weib
TTITLE7=Wer hat ein Herz das nie bricht
TTITLE8=Angie
TTITLE9=Mann oh Mann
TTITLE10=Verdammt, mein Sohn hat dein Gesicht
TTITLE11=Radwechsel
TTITLE12=14 Tage auf dem Brenner
TTITLE13=Six days on the road
TTITLE14=Buchstabiere LKW
TTITLE15=Mein Antwort ist die Autobahn
EXTD=
EXTT0=
EXTT1=
EXTT2=
EXTT3=
EXTT4=
EXTT5=
EXTT6=
EXTT7=
EXTT8=
EXTT9=
EXTT10=
EXTT11=
EXTT12=
EXTT13=
EXTT14=
EXTT15=
PLAYORDER=
